<svg viewBox="0 0 24 24" data-name="Line Color" xmlns="http://www.w3.org/2000/svg" class="icon line-color"><path d="M15 18H9a3 3 0 0 0 3 3h0a3 3 0 0 0 3-3Z" style="fill:none;stroke:#2ca9bc;stroke-linecap:round;stroke-linejoin:round;stroke-width:2"/><path d="M19.38 14.38a2.12 2.12 0 0 1 .62 1.5h0A2.12 2.12 0 0 1 17.88 18H6.12A2.12 2.12 0 0 1 4 15.88h0a2.12 2.12 0 0 1 .62-1.5L6 13V9a6 6 0 0 1 6-6h0a6 6 0 0 1 6 6v4Z" style="fill:none;stroke:#000;stroke-linecap:round;stroke-linejoin:round;stroke-width:2"/></svg>