<svg width="800" height="800" viewBox="0 0 1024 1024" class="icon" xmlns="http://www.w3.org/2000/svg"><path d="M512.341 730.225c28.654 0 51.883-23.229 51.883-51.883 0-28.654-23.23-51.882-51.883-51.882-28.654 0-51.883 23.228-51.883 51.882 0 28.654 23.23 51.883 51.883 51.883zM97.28 591.72c0-76.327 62.054-138.203 138.477-138.203h553.168c76.479 0 138.477 62.007 138.477 138.203v190.538c0 76.327-62.054 138.203-138.477 138.203H235.757c-76.479 0-138.477-62.007-138.477-138.203V591.72z" fill="#FFF200"/><path d="M661.955 171.873c-39.856-43.479-92.99-67.425-149.613-67.425-56.623 0-109.757 23.946-149.614 67.426-39.403 42.985-61.102 100.014-61.102 160.585h40.96c0-103.14 76.151-187.051 169.755-187.051s169.757 83.912 169.757 187.051h40.96c0-60.57-21.7-117.6-61.102-160.584M512.34 730.225c-28.654 0-51.882-23.229-51.882-51.883 0-28.654 23.228-51.882 51.882-51.882 28.655 0 51.883 23.228 51.883 51.882 0 28.654-23.228 51.883-51.883 51.883m276.584-276.708h-553.17c-76.42 0-138.475 61.877-138.475 138.203v190.538c0 76.197 61.998 138.203 138.476 138.203h553.17c76.42 0 138.475-61.876 138.475-138.203V591.72c0-76.195-61.997-138.203-138.476-138.203M512.341 771.185c51.194 0 92.843-41.65 92.843-92.843 0-51.193-41.65-92.842-92.843-92.842s-92.842 41.649-92.842 92.842 41.648 92.843 92.842 92.843m276.584-276.708c53.77 0 97.516 43.624 97.516 97.243v190.538c0 53.62-43.745 97.243-97.516 97.243h-553.17c-53.77 0-97.516-43.622-97.516-97.243V591.72c0-53.62 43.745-97.243 97.515-97.243h553.17"/></svg>