<svg viewBox="0 0 64 64" fill="none" xmlns="http://www.w3.org/2000/svg"><g clip-path="url(#a)" stroke-width="4" stroke-linecap="round" stroke-linejoin="round"><path d="M47.18 55.997v-4.37a14.308 14.308 0 0 0-14.31-14.31h-1.74a14.306 14.306 0 0 0-14.31 14.31v4.37" stroke="#426AB2"/><path d="M32.003 37.317a9.342 9.342 0 1 0 0-18.684 9.342 9.342 0 0 0 0 18.684Z" stroke="#426AB2"/><path d="M52.003 7.997h-40a4 4 0 0 0-4 4v40a4 4 0 0 0 4 4h40a4 4 0 0 0 4-4v-40a4 4 0 0 0-4-4v0Z" stroke="#000"/></g><defs><clipPath id="a"><path fill="#fff" d="M6 6h52v52H6z"/></clipPath></defs></svg>